x1 = 10;
x2 = 600;
x3 = 700;
x4 = 1500;

c1 = 2;
c2 = 100;
c3 = 140;
c4 = 400;

// Куб с источником
Point(1) = {x1, x1, x1, c1};
Point(2) = {x1, x1, -x1, c1};
Point(3) = {x1, -x1, x1, c1};
Point(4) = {x1, -x1, -x1, c1};
Point(5) = {-x1, x1, x1, c1};
Point(6) = {-x1, x1, -x1, c1};
Point(7) = {-x1, -x1, x1, c1};
Point(8) = {-x1, -x1, -x1, c1};
Line(1) = {4, 3};
Line(2) = {3, 1};
Line(3) = {1, 2};
Line(4) = {2, 4};
Line(5) = {4, 8};
Line(6) = {8, 6};
Line(7) = {6, 2};
Line(8) = {6, 5};
Line(9) = {5, 1};
Line(10) = {5, 7};
Line(11) = {7, 3};
Line(12) = {7, 8};
Line Loop(49) = {2, -9, 10, 11};
Plane Surface(50) = {49};
Line Loop(51) = {2, 3, 4, 1};
Plane Surface(52) = {51};
Line Loop(53) = {11, -1, 5, -12};
Plane Surface(54) = {53};
Line Loop(55) = {10, 12, 6, 8};
Plane Surface(56) = {55};
Line Loop(57) = {9, 3, -7, 8};
Plane Surface(58) = {57};
Line Loop(59) = {4, 5, 6, 7};
Plane Surface(60) = {59};
Surface Loop(97) = {50, 52, 58, 60, 54, 56};
Volume(98) = {97};

// Куб с областью
Point(11) = {x2, x2, x2, c2};
Point(12) = {x2, x2, -x2, c2};
Point(13) = {x2, -x2, x2, c2};
Point(14) = {x2, -x2, -x2, c2};
Point(15) = {-x2, x2, x2, c2};
Point(16) = {-x2, x2, -x2, c2};
Point(17) = {-x2, -x2, x2, c2};
Point(18) = {-x2, -x2, -x2, c2};
Line(13) = {13, 11};
Line(14) = {11, 12};
Line(15) = {12, 14};
Line(16) = {14, 13};
Line(17) = {14, 18};
Line(18) = {18, 16};
Line(19) = {16, 12};
Line(20) = {11, 15};
Line(21) = {15, 17};
Line(22) = {17, 13};
Line(23) = {17, 18};
Line(24) = {16, 15};
Line Loop(61) = {17, 18, 19, 15};
Plane Surface(62) = {61};
Line Loop(63) = {16, -22, 23, -17};
Plane Surface(64) = {63};
Line Loop(65) = {23, 18, 24, 21};
Plane Surface(66) = {65};
Line Loop(67) = {16, 13, 14, 15};
Plane Surface(68) = {67};
Line Loop(69) = {22, 13, 20, 21};
Plane Surface(70) = {69};
Line Loop(71) = {14, -19, 24, -20};
Plane Surface(72) = {71};
Surface Loop(99) = {64, 68, 70, 72, 62, 66};
Volume(100) = {97, 99};
Physical Volume(105) = {98, 100};

// Куб с краевыми
Point(21) = {x3, x3, x3, c3};
Point(22) = {x3, x3, -x3, c3};
Point(23) = {x3, -x3, x3, c3};
Point(24) = {x3, -x3, -x3, c3};
Point(25) = {-x3, x3, x3, c3};
Point(26) = {-x3, x3, -x3, c3};
Point(27) = {-x3, -x3, x3, c3};
Point(28) = {-x3, -x3, -x3, c3};
Line(25) = {27, 28};
Line(26) = {28, 24};
Line(27) = {24, 23};
Line(28) = {23, 27};
Line(29) = {27, 25};
Line(30) = {25, 21};
Line(31) = {21, 23};
Line(32) = {21, 22};
Line(33) = {22, 24};
Line(34) = {28, 26};
Line(35) = {26, 22};
Line(36) = {26, 25};
Line Loop(73) = {33, -26, 34, 35};
Plane Surface(74) = {73};
Line Loop(75) = {27, -31, 32, 33};
Plane Surface(76) = {75};
Line Loop(77) = {28, 25, 26, 27};
Plane Surface(78) = {77};
Line Loop(79) = {25, 34, 36, -29};
Plane Surface(80) = {79};
Line Loop(81) = {31, 28, 29, 30};
Plane Surface(82) = {81};
Line Loop(83) = {32, -35, 36, 30};
Plane Surface(84) = {83};
Surface Loop(101) = {76, 78, 82, 80, 74, 84};
Volume(102) = {99, 101};
Physical Volume(106) = {102};
Physical Surface(108) = {76, 74, 80, 84, 82, 78};

