cl = 1.0;
Point(1) = {0, 0, 0, cl};
Point(2) = {1, 0, 0, cl};
Point(3) = {0, 1, 0, cl};
Point(4) = {1, 1, 0, cl};
Point(5) = {1, 1, 1, cl};
Point(6) = {0, 1, 1, cl};
Point(7) = {0, 0, 1, cl};
Point(8) = {1, 0, 1, cl};
Point(9) = {-0.5, 0.5, 0.5, cl};
Line(1) = {4, 5};
Line(2) = {5, 6};
Line(3) = {6, 3};
Line(4) = {3, 4};
Line(5) = {4, 2};
Line(6) = {2, 8};
Line(7) = {8, 5};
Line(8) = {3, 1};
Line(9) = {6, 7};
Line(10) = {1, 7};
Line(11) = {7, 8};
Line(12) = {1, 2};
Line(13) = {9, 3};
Line(14) = {9, 6};
Line(15) = {9, 7};
Line(16) = {9, 1};
Line Loop(17) = {9, 11, 7, 2};
Plane Surface(18) = {17};
Line Loop(19) = {12, 6, -11, -10};
Plane Surface(20) = {19};
Line Loop(21) = {5, 6, 7, -1};
Plane Surface(22) = {21};
Line Loop(23) = {2, 3, 4, 1};
Plane Surface(24) = {23};
Line Loop(25) = {12, -5, -4, 8};
Plane Surface(26) = {25};
Line Loop(27) = {3, 8, 10, -9};
Plane Surface(28) = {27};
Line Loop(29) = {14, 3, -13};
Plane Surface(30) = {29};
Line Loop(31) = {14, 9, -15};
Plane Surface(32) = {31};
Line Loop(33) = {16, -8, -13};
Plane Surface(34) = {33};
Line Loop(35) = {16, 10, -15};
Plane Surface(36) = {35};
Surface Loop(37) = {18, 20, 26, 22, 24, 28};
Volume(38) = {37};
Surface Loop(39) = {36, 34, 30, 32, 28};
Volume(40) = {39};
Physical Volume(41) = {38};
Physical Volume(42) = {40};
Physical Surface(43) = {18, 24, 22, 26, 20, 36, 32, 30, 34};
